<?xml version="1.0" standalone="no"?>
<!DOCTYPE svg PUBLIC "-//W3C//DTD SVG 20010904//EN"
 "http://www.w3.org/TR/2001/REC-SVG-20010904/DTD/svg10.dtd">
<svg version="1.0" xmlns="http://www.w3.org/2000/svg"
 width="192.000000pt" height="192.000000pt" viewBox="0 0 192.000000 192.000000"
 preserveAspectRatio="xMidYMid meet">

<g transform="translate(0.000000,192.000000) scale(0.100000,-0.100000)"
fill="#000000" stroke="none">
<path d="M194 1471 c-52 -24 -81 -61 -90 -116 -17 -117 80 -207 193 -177 58
16 88 39 108 83 42 90 3 181 -92 215 -51 18 -71 17 -119 -5z m56 -46 c0 -32
-12 -37 -38 -19 -28 19 -28 32 1 43 28 11 37 6 37 -24z m66 20 c19 -14 18 -15
-6 -34 -30 -24 -44 -14 -34 23 7 30 13 32 40 11z m-140 -46 c3 -6 22 -18 41
-25 51 -22 37 -40 -28 -35 -30 1 -56 5 -58 7 -6 6 21 64 30 64 4 0 11 -5 15
-11z m202 -14 c19 -41 15 -45 -48 -45 -67 0 -77 13 -26 34 18 8 37 19 40 25
11 17 22 13 34 -14z m-138 -91 c0 -7 -8 -10 -20 -7 -13 4 -29 -2 -44 -16 l-23
-21 -11 24 c-6 13 -8 27 -5 30 12 12 103 3 103 -10z m140 3 c0 -7 -6 -21 -13
-31 -12 -16 -14 -16 -31 3 -11 12 -30 21 -43 21 -14 0 -21 4 -18 10 10 16 105
13 105 -3z m-140 -62 c0 -20 -4 -24 -22 -21 -13 3 -25 5 -27 5 -7 2 32 41 41
41 4 0 8 -11 8 -25z m68 13 c17 -17 15 -25 -8 -31 -16 -4 -20 0 -20 19 0 26
10 30 28 12z"/>
<path d="M922 1479 c-38 -11 -72 -59 -72 -102 0 -66 52 -127 108 -127 36 0 98
34 94 52 -2 9 2 19 7 23 6 3 11 27 11 51 0 37 -6 51 -29 75 -16 16 -36 29 -44
29 -9 0 -21 2 -29 4 -7 2 -28 0 -46 -5z m85 -51 c23 -21 30 -62 15 -85 -4 -7
-31 -14 -59 -17 -60 -5 -77 7 -75 57 2 61 73 88 119 45z"/>
<path d="M1583 1472 c-108 -57 -102 -220 9 -278 40 -21 117 -18 156 6 95 58
97 205 3 267 -42 28 -121 30 -168 5z m67 -37 c0 -28 -21 -33 -40 -10 -15 18
-5 35 21 35 14 0 19 -7 19 -25z m75 14 c7 -10 -21 -38 -37 -39 -5 0 -8 11 -8
25 0 18 5 25 19 25 11 0 23 -5 26 -11z m-92 -72 c32 -12 7 -27 -44 -27 -52 0
-60 10 -38 51 10 19 11 19 37 1 15 -10 35 -22 45 -25z m145 18 c19 -41 15 -45
-48 -45 -33 0 -60 4 -60 10 0 5 16 17 35 26 20 9 38 20 41 25 9 16 20 10 32
-16z m-153 -87 c-11 -6 -30 -20 -42 -31 l-22 -20 -11 27 c-5 15 -10 29 -10 32
0 2 24 4 53 4 43 -1 49 -2 32 -12z m154 -18 c-12 -34 -21 -37 -40 -13 -8 9
-27 22 -44 29 -29 13 -28 13 32 14 l62 0 -10 -30z m-139 -45 c0 -18 -5 -25
-18 -25 -28 0 -34 11 -15 32 22 25 33 23 33 -7z m73 7 c10 -10 14 -22 10 -25
-10 -10 -43 -8 -43 2 0 5 -3 16 -6 25 -9 22 19 21 39 -2z"/>
<path d="M537 1452 c-35 -36 -43 -79 -23 -125 l15 -37 -40 -17 c-51 -20 -79
-71 -79 -144 l0 -51 -40 36 c-33 30 -48 36 -84 36 -49 0 -72 -16 -83 -58 -8
-34 3 -50 115 -171 l92 -101 0 -133 c0 -123 2 -137 23 -168 12 -19 42 -45 66
-58 l44 -24 424 2 c258 1 435 6 451 12 37 14 82 58 98 96 10 22 14 75 14 164
l0 132 95 98 c52 53 97 109 101 124 13 54 -28 95 -96 95 -21 0 -38 -11 -63
-40 -19 -22 -37 -40 -40 -40 -4 0 -7 23 -7 51 0 71 -22 112 -76 140 -43 23
-54 41 -34 54 6 3 10 27 10 51 0 64 -40 104 -104 104 -80 0 -127 -67 -101
-143 7 -20 10 -39 7 -42 -3 -3 -28 -5 -56 -5 l-51 0 3 -89 c3 -70 0 -91 -12
-104 -9 -9 -16 -28 -17 -44 -1 -20 -4 -16 -10 17 -19 96 -122 132 -194 69 -19
-17 -35 -38 -35 -46 0 -9 -6 -13 -14 -10 -11 4 -16 -3 -18 -26 -2 -18 -7 12
-12 65 -5 53 -6 113 -4 132 l4 35 -56 3 c-43 2 -54 6 -51 18 3 8 7 36 9 62 3
42 1 51 -26 78 -42 42 -106 43 -145 2z m823 -22 c11 -11 21 -26 21 -32 8 -81
-68 -122 -118 -64 -30 35 -29 61 2 91 29 30 68 32 95 5z m-705 -325 c35 -34
33 -78 -4 -116 -16 -16 -39 -29 -51 -29 -30 0 -80 53 -80 85 0 35 50 85 85 85
14 0 37 -11 50 -25z m356 -4 c34 -35 37 -68 9 -104 -41 -51 -100 -42 -126 19
-18 42 -12 66 23 94 35 27 59 25 94 -9z m366 7 c47 -44 14 -138 -47 -138 -41
0 -81 37 -82 78 -2 70 79 107 129 60z m311 -20 c1 -7 -44 -63 -102 -123 l-105
-110 -3 -147 -3 -148 -33 -32 -32 -33 -120 -3 -120 -4 0 79 c-1 43 -3 157 -6
253 l-6 175 44 -41 c60 -58 88 -74 123 -74 43 0 78 25 185 132 112 112 127
122 155 104 11 -7 21 -20 23 -28z m-1259 -82 c156 -151 189 -157 284 -53 l47
52 -2 -260 -3 -260 -50 -3 c-27 -2 -79 0 -115 3 -57 6 -69 11 -102 45 l-38 38
0 137 0 137 -105 110 c-103 107 -117 132 -93 156 30 30 59 13 177 -102z m686
-333 c-4 -24 -12 -33 -34 -38 -15 -3 -39 -1 -54 4 -37 14 -196 8 -206 -8 -5
-8 -10 2 -14 26 -9 50 -9 323 -1 323 4 0 28 -20 55 -45 79 -73 122 -73 203 5
l51 49 3 -142 c2 -78 0 -156 -3 -174z"/>
</g>
</svg>
